<svg width="20" height="20" viewBox="0 0 20 20" fill="none" xmlns="http://www.w3.org/2000/svg">
<path d="M8.33333 14.9993C8.55435 14.9993 8.76631 14.9116 8.92259 14.7553C9.07887 14.599 9.16667 14.387 9.16667 14.166V9.16602C9.16667 8.945 9.07887 8.73304 8.92259 8.57676C8.76631 8.42048 8.55435 8.33268 8.33333 8.33268C8.11232 8.33268 7.90036 8.42048 7.74408 8.57676C7.5878 8.73304 7.5 8.945 7.5 9.16602V14.166C7.5 14.387 7.5878 14.599 7.74408 14.7553C7.90036 14.9116 8.11232 14.9993 8.33333 14.9993ZM16.6667 4.99935H13.3333V4.16602C13.3333 3.50297 13.0699 2.86709 12.6011 2.39825C12.1323 1.92941 11.4964 1.66602 10.8333 1.66602H9.16667C8.50363 1.66602 7.86774 1.92941 7.3989 2.39825C6.93006 2.86709 6.66667 3.50297 6.66667 4.16602V4.99935H3.33333C3.11232 4.99935 2.90036 5.08715 2.74408 5.24343C2.5878 5.39971 2.5 5.61167 2.5 5.83268C2.5 6.0537 2.5878 6.26566 2.74408 6.42194C2.90036 6.57822 3.11232 6.66602 3.33333 6.66602H4.16667V15.8327C4.16667 16.4957 4.43006 17.1316 4.8989 17.6004C5.36774 18.0693 6.00363 18.3327 6.66667 18.3327H13.3333C13.9964 18.3327 14.6323 18.0693 15.1011 17.6004C15.5699 17.1316 15.8333 16.4957 15.8333 15.8327V6.66602H16.6667C16.8877 6.66602 17.0996 6.57822 17.2559 6.42194C17.4122 6.26566 17.5 6.0537 17.5 5.83268C17.5 5.61167 17.4122 5.39971 17.2559 5.24343C17.0996 5.08715 16.8877 4.99935 16.6667 4.99935ZM8.33333 4.16602C8.33333 3.945 8.42113 3.73304 8.57741 3.57676C8.73369 3.42048 8.94565 3.33268 9.16667 3.33268H10.8333C11.0543 3.33268 11.2663 3.42048 11.4226 3.57676C11.5789 3.73304 11.6667 3.945 11.6667 4.16602V4.99935H8.33333V4.16602ZM14.1667 15.8327C14.1667 16.0537 14.0789 16.2657 13.9226 16.4219C13.7663 16.5782 13.5543 16.666 13.3333 16.666H6.66667C6.44565 16.666 6.23369 16.5782 6.07741 16.4219C5.92113 16.2657 5.83333 16.0537 5.83333 15.8327V6.66602H14.1667V15.8327ZM11.6667 14.9993C11.8877 14.9993 12.0996 14.9116 12.2559 14.7553C12.4122 14.599 12.5 14.387 12.5 14.166V9.16602C12.5 8.945 12.4122 8.73304 12.2559 8.57676C12.0996 8.42048 11.8877 8.33268 11.6667 8.33268C11.4457 8.33268 11.2337 8.42048 11.0774 8.57676C10.9211 8.73304 10.8333 8.945 10.8333 9.16602V14.166C10.8333 14.387 10.9211 14.599 11.0774 14.7553C11.2337 14.9116 11.4457 14.9993 11.6667 14.9993Z" fill="#C70101"/>
</svg>
